<svg width="36" height="38" viewBox="0 0 36 38" fill="none" xmlns="http://www.w3.org/2000/svg">
<path fill-rule="evenodd" clip-rule="evenodd" d="M20.1503 27.6424C20.2702 27.5458 20.3803 27.445 20.478 27.3418L34.7103 13.2026C35.63 12.231 35.63 10.9356 34.7103 9.96403C34.2501 9.478 33.6366 9.23511 33.0231 9.23535C32.4097 9.23524 31.7964 9.47813 31.3364 9.96403L30.1403 11.1699L18.1541 23.2421L18.1479 23.2617L17.8461 23.5659L4.66252 10.2879C3.74273 9.31629 2.20973 9.31629 1.28994 10.2879C0.37015 11.2594 0.37015 12.5548 1.28994 13.5264L16.0065 28.4238C16.9263 29.3953 18.4593 29.3953 19.3791 28.4238L20.1503 27.6424Z" fill="#071D49"/>
</svg>
