<svg width="36" height="37" viewBox="0 0 36 37" fill="none" xmlns="http://www.w3.org/2000/svg">
<path fill-rule="evenodd" clip-rule="evenodd" d="M15.8497 9.66622C15.7298 9.76279 15.6197 9.8636 15.522 9.96681L1.28974 24.106C0.369953 25.0776 0.369953 26.373 1.28974 27.3446C1.74986 27.8306 2.36344 28.0735 2.97694 28.0732C3.59028 28.0734 4.20364 27.8305 4.66364 27.3446L5.85966 26.1387L17.8459 14.0665L17.8521 14.0469L18.1539 13.7427L31.3375 27.0207C32.2573 27.9923 33.7903 27.9923 34.7101 27.0207C35.6298 26.0492 35.6298 24.7538 34.7101 23.7822L19.9935 8.88484C19.0737 7.91327 17.5407 7.91327 16.6209 8.88484L15.8497 9.66622Z" fill="#071D49"/>
</svg>
